<svg xmlns="http://www.w3.org/2000/svg" viewBox="0 0 512 512"><path fill="#ffd15b" d="M226.283 45.226 4.57 432.772c-13.058 22.824 3.422 51.238 29.717 51.238h443.425c26.296 0 42.775-28.414 29.717-51.238L285.717 45.226c-13.147-22.981-46.287-22.981-59.434 0"/><path fill="#ffc344" d="M507.43 432.772 285.717 45.226c-8.752-15.299-26.361-20.402-41.037-15.331 7.361 2.547 13.982 7.655 18.373 15.331l221.712 387.546c13.058 22.824-3.422 51.238-29.717 51.238h22.664c26.296 0 42.776-28.414 29.718-51.238"/><path fill="#fd8087" d="M477.716 458.204H34.285c-4.197 0-6.352-2.594-7.275-4.173-.948-1.61-2.156-4.786-.039-8.46L248.676 58.035l.044-.076 6.466 3.801-6.461-3.809c2.125-3.615 5.47-4.155 7.275-4.155s5.15.54 7.275 4.155l221.764 387.638.073.131c2 3.656.79 6.771-.133 8.331-.926 1.576-3.082 4.153-7.263 4.153m-432.11-15h420.787L256 75.44zM261.675 65.521l-.001.002z"/><g fill="#fd8087"><path d="M201.214 239.817h-14.235c-4.142 0-7.5 3.357-7.5 7.5s3.358 7.5 7.5 7.5h6.735v59.102c0 4.143 3.358 7.5 7.5 7.5s7.5-3.357 7.5-7.5v-66.602a7.5 7.5 0 0 0-7.5-7.5M268.943 274.237a21.42 21.42 0 0 0 4.291-12.878c0-11.878-9.663-21.541-21.542-21.541-11.878 0-21.541 9.663-21.541 21.541 0 4.826 1.601 9.282 4.292 12.878-5.807 4.912-9.51 12.239-9.51 20.423 0 14.756 12.004 26.76 26.759 26.76s26.759-12.004 26.759-26.76c.001-8.185-3.701-15.511-9.508-20.423m-17.25-19.42c3.607 0 6.542 2.935 6.542 6.541s-2.935 6.541-6.542 6.541-6.541-2.935-6.541-6.541 2.934-6.541 6.541-6.541m0 51.602c-6.484 0-11.759-5.275-11.759-11.76s5.275-11.76 11.759-11.76 11.759 5.275 11.759 11.76-5.275 11.76-11.759 11.76M298.651 282.899h5.685v5.686c0 4.143 3.357 7.5 7.5 7.5s7.5-3.357 7.5-7.5v-5.686h5.686c4.143 0 7.5-3.357 7.5-7.5s-3.357-7.5-7.5-7.5h-5.686v-5.685c0-4.143-3.357-7.5-7.5-7.5s-7.5 3.357-7.5 7.5v5.685h-5.685c-4.143 0-7.5 3.357-7.5 7.5s3.358 7.5 7.5 7.5M268.835 339.72a7.5 7.5 0 0 0-7.5 7.5v32.459l-25.74-36.664a7.499 7.499 0 0 0-13.638 4.309v56.091c0 4.143 3.358 7.5 7.5 7.5s7.5-3.357 7.5-7.5v-32.354l25.739 36.664a7.5 7.5 0 0 0 8.399 2.841 7.5 7.5 0 0 0 5.24-7.151V347.22c0-4.143-3.357-7.5-7.5-7.5M319.732 395.891h-12.178v-48.647c0-4.143-3.357-7.5-7.5-7.5s-7.5 3.357-7.5 7.5v56.147c0 4.143 3.357 7.5 7.5 7.5h19.678c4.143 0 7.5-3.357 7.5-7.5s-3.357-7.5-7.5-7.5M374.049 341.077a7.5 7.5 0 0 0-10.377 2.193l-11.526 17.707-11.66-17.858a7.505 7.505 0 0 0-10.381-2.18 7.5 7.5 0 0 0-2.18 10.381l16.725 25.614-.065 26.462a7.5 7.5 0 0 0 7.481 7.519h.019a7.5 7.5 0 0 0 7.5-7.481l.065-26.49 16.592-25.49a7.5 7.5 0 0 0-2.193-10.377M170.14 339.72c-19.628 0-35.598 15.969-35.598 35.598s15.969 35.598 35.598 35.598 35.598-15.969 35.598-35.598-15.969-35.598-35.598-35.598m0 56.195c-11.357 0-20.598-9.24-20.598-20.598s9.24-20.598 20.598-20.598 20.598 9.24 20.598 20.598-9.24 20.598-20.598 20.598"/></g></svg>