<?xml version="1.0" encoding="UTF-8"?>
<svg width="512px" height="327px" viewBox="0 0 512 327" version="1.1" xmlns="http://www.w3.org/2000/svg" xmlns:xlink="http://www.w3.org/1999/xlink">
    <path d="M141,98 L141,112.379909 L45.2712307,112.379909 L45.2712307,98 L141,98 Z M0,163.861125 L134.154233,163.861125 L134.154233,149.451189 L0,149.451189 L0,163.861125 Z M52.3799115,218.609274 L120.578662,218.609274 L120.578662,204.200339 L52.3799115,204.200339 L52.3799115,218.609274 Z M1.8933823,274 L117.51966,274 L117.51966,259.591065 L1.8933823,259.591065 L1.8933823,274 Z M14.7991719,204.200339 L14.7991719,218.609274 L39.7950172,218.609274 L39.7950172,204.200339 L14.7991719,204.200339 Z" id="Shape" fill="#52C5DA" fill-rule="nonzero"></path>
    <path d="M177.456901,44 L422.29647,44 C433.516038,44 442.2867,48.2574934 448.115475,56.5383432 L506.163239,138.97062 C511.671027,146.814214 513.273965,155.940559 511.001053,166.554775 L483.638107,295 L97,295 L144.76116,71.0018138 C147.908039,56.1601217 162.624472,44 177.456901,44 Z" id="Path" fill="#F2F2F2"></path>
    <path d="M392.08156,68 L424.05793,68 L489,160.54453 L488.475355,163 L371.929192,163 C364.503215,163 359.727446,156.919502 361.299383,149.466831 L375.744611,81.5341724 C377.316548,74.0794945 384.684564,68 392.08156,68 L392.08156,68 Z" id="Path" fill="#52C5DA"></path>
    <path d="M371,45 L404.593226,45 L410.543307,16.8013395 C415.280178,-5.6004465 381.715696,-5.6004465 376.978825,16.8013395 L371,45 Z" id="Path" fill="#F02F40"></path>
    <path d="M269.409151,70 L181.800679,70 C175.956571,70 170.141543,74.798679 168.91416,80.6516817 L150.241694,168.349322 C148.98523,174.201321 152.75462,179 158.598728,179 L246.17812,179 C252.022228,179 257.838259,174.201321 259.094722,168.349322 L277.767188,80.6516817 C278.993568,74.798679 275.253259,70 269.409151,70 L269.409151,70 Z" id="Path" fill="#F02F40"></path>
    <polygon id="Path" fill="#FFFFFF" points="209.501433 94 230.828799 94 226.434648 114.423729 247 114.423729 242.459075 135.575273 221.893724 135.575273 217.498567 156 196.200354 156 200.565352 135.575273 180 135.575273 184.540925 114.423729 205.106276 114.423729"></polygon>
    <path d="M404.817864,17.710008 L398.925531,45 L404.465012,45 L410.534276,16.8075374 C413.509763,3.00263518 401.665446,-2.29825538 391,0.904865708 C399.690888,0.7589513 407.263566,6.35067126 404.817864,17.710008 L404.817864,17.710008 Z" id="Path" fill="#B73535"></path>
    <path d="M267.125317,80.6516817 L248.69792,168.349322 C247.488594,174.201321 241.759117,179 236,179 L245.645953,179 C251.404083,179 257.134548,174.201321 258.372526,168.349322 L276.770282,80.6516817 C277.979608,74.798679 274.294326,70 268.535209,70 L258.860603,70 C264.649361,70 268.334642,74.7996831 267.125317,80.6516817 Z" id="Path" fill="#B73535"></path>
    <path d="M405,44 L422.453684,44 C433.653588,44 442.408879,48.2574934 448.227439,56.5383432 L506.173469,138.97062 C511.671604,146.814214 513.271733,155.940559 511.002804,166.554775 L483.687814,295 L466.23413,295 L493.54912,166.554775 C495.818049,155.941559 494.21792,146.814214 488.719785,138.97062 L430.773755,56.5383432 C424.955195,48.2574934 416.228853,44 405,44 Z" id="Path" fill="#E8E1E1"></path>
    <polygon id="Path" fill="#F02F40" points="116.525476 204 503 204 496.504512 235 110 235"></polygon>
    <polygon id="Path" fill="#B73535" points="485.502606 204 503 204 500.054914 218.020595 496.497394 235 479 235"></polygon>
    <polygon id="Path" fill="#454D5B" points="88.6425531 260 508 260 500.356446 296 81 296"></polygon>
    <path d="M203.426671,229 C230.426091,229 247.641684,250.939419 241.893523,278 C236.116472,305.060581 209.581287,327 182.581866,327 C155.582445,327 138.337962,305.060581 144.115014,278 C149.863175,250.939419 176.42725,229 203.426671,229 Z" id="Path" fill="#555F70"></path>
    <path d="M395.423292,229 C422.425018,229 439.64208,250.939419 433.893429,278 C428.144777,305.060581 401.578434,327 374.576708,327 C347.574982,327 330.35792,305.060581 336.106571,278 C341.856219,250.939419 368.422562,229 395.423292,229 Z" id="Path" fill="#555F70"></path>
    <path d="M198.625548,251 C213.221981,251 222.523669,262.885978 219.393998,277.5 C216.293435,292.144233 201.959983,304 187.364554,304 C172.79723,304 163.495543,292.144233 166.596105,277.5 C169.696668,262.885978 184.059228,251 198.625548,251 Z" id="Path" fill="#F2F2F2"></path>
    <path d="M390.613959,251 C405.205235,251 414.503636,262.885978 411.404169,277.5 C408.275604,292.144233 393.947215,304 379.386041,304 C364.794765,304 355.496364,292.144233 358.595831,277.5 C361.724396,262.885978 376.051781,251 390.613959,251 L390.613959,251 Z" id="Path" fill="#F2F2F2"></path>
    <polygon id="Path" fill="#3DB0C4" points="409 68 477.674729 163 488.474198 163 489 160.54453 423.913743 68"></polygon>
    <path d="M216.619364,235.401202 C225.067101,240.92974 230.794886,249.65838 232.646241,260.163301 C233.62999,265.691839 233.542634,271.71462 232.18365,278 C230.852461,284.314335 228.393584,290.308161 225.095889,295.836699 C214.999304,312.654957 196.919557,324.934162 178,326.767356 C179.562484,326.913133 181.153756,327 182.802603,327 C203.428584,327 223.823269,314.080774 234.787459,295.836699 C238.113942,290.308161 240.544031,284.314335 241.904008,278 C243.235197,271.715619 243.32156,265.691839 242.337811,260.163301 C240.486456,249.659379 234.758671,240.92974 226.310934,235.401202 C220.06199,231.327438 212.338912,229 203.573515,229 C201.924668,229 200.304608,229.086867 198.655761,229.232644 C205.481453,229.930576 211.527889,232.083281 216.619364,235.401202 Z" id="Path" fill="#485263"></path>
    <path d="M408.617968,235.401202 C417.064191,240.92974 422.791621,249.65838 424.642862,260.163301 C425.626551,265.691839 425.5392,271.71462 424.209086,278 C422.87798,284.314335 420.419254,290.308161 417.092977,295.836699 C406.998009,312.654957 388.918387,324.934162 370,326.767356 C371.561395,326.913133 373.152568,327 374.801314,327 C395.454805,327 415.819443,314.080774 426.782955,295.836699 C430.109233,290.308161 432.567958,284.314335 433.899064,278 C435.230171,271.715619 435.316529,265.691839 434.361626,260.163301 C432.4816,249.659379 426.782955,240.92974 418.306954,235.401202 C412.058397,231.327438 404.335796,229 395.570942,229 C393.950982,229 392.302237,229.086867 390.682277,229.232644 C397.481739,229.930576 403.526809,232.083281 408.617968,235.401202 Z" id="Path" fill="#485263"></path>
</svg>