<?xml version="1.0" encoding="UTF-8"?>
<svg width="512px" height="512px" viewBox="0 0 512 512" version="1.1" xmlns="http://www.w3.org/2000/svg" xmlns:xlink="http://www.w3.org/1999/xlink">
    <path d="M480.095,283.195 L407.078,283.195 C402.925,283.195 399.557,286.562 399.557,290.716 L399.557,504.216 C399.557,508.369 402.924,511.737 407.078,511.737 L480.095,511.737 C484.248,511.737 487.616,508.37 487.616,504.216 L487.616,290.716 C487.615,286.562 484.248,283.195 480.095,283.195 Z" id="Path" fill="#A0A0A0" fill-rule="nonzero"></path>
    <path d="M437.16,283.195 L407.078,283.195 C402.925,283.195 399.557,286.562 399.557,290.716 L399.557,504.216 C399.557,508.369 402.924,511.737 407.078,511.737 L437.16,511.737 L437.16,283.195 Z" id="Path" fill="#878787" fill-rule="nonzero"></path>
    <path d="M504.479,242.81 L407.076,242.81 C402.923,242.81 399.555,246.177 399.555,250.331 L399.555,290.716 C399.555,294.869 402.922,298.237 407.076,298.237 L504.479,298.237 C508.632,298.237 512,294.87 512,290.716 L512,250.331 C512,246.178 508.633,242.81 504.479,242.81 Z" id="Path" fill="#565656" fill-rule="nonzero"></path>
    <path d="M437.16,242.81 L407.078,242.81 C402.925,242.81 399.557,246.177 399.557,250.331 L399.557,290.716 C399.557,294.869 402.924,298.237 407.078,298.237 L437.16,298.237 L437.16,242.81 Z" id="Path" fill="#494949" fill-rule="nonzero"></path>
    <path d="M104.924,283.195 L31.905,283.195 C27.752,283.195 24.384,286.562 24.384,290.716 L24.384,504.216 C24.384,508.369 27.751,511.737 31.905,511.737 L104.922,511.737 C109.075,511.737 112.443,508.37 112.443,504.216 L112.443,290.716 C112.444,286.562 109.077,283.195 104.924,283.195 Z" id="Path" fill="#A0A0A0" fill-rule="nonzero"></path>
    <path d="M104.924,283.195 L74.841,283.195 L74.841,511.736 L104.923,511.736 C109.076,511.736 112.444,508.369 112.444,504.215 L112.444,290.715 C112.444,286.562 109.077,283.195 104.924,283.195 Z" id="Path" fill="#878787" fill-rule="nonzero"></path>
    <path d="M104.924,242.81 L7.521,242.81 C3.368,242.81 0,246.177 0,250.331 L0,290.716 C0,294.869 3.367,298.237 7.521,298.237 L104.924,298.237 C109.077,298.237 112.445,294.87 112.445,290.716 L112.445,250.331 C112.445,246.178 109.077,242.81 104.924,242.81 Z" id="Path" fill="#565656" fill-rule="nonzero"></path>
    <path d="M104.924,242.81 L74.841,242.81 L74.841,298.236 L104.923,298.236 C109.076,298.236 112.444,294.869 112.444,290.715 L112.444,250.33 C112.444,246.178 109.077,242.81 104.924,242.81 Z" id="Path" fill="#494949" fill-rule="nonzero"></path>
    <path d="M407.076,132.586 L321.771,132.586 C319.411,132.586 317.186,133.694 315.766,135.579 C301.418,154.614 279.542,165.531 255.748,165.531 C231.954,165.531 210.078,154.614 195.73,135.579 C194.309,133.694 192.085,132.586 189.725,132.586 L104.924,132.586 C100.771,132.586 97.403,135.953 97.403,140.107 L97.403,504.216 C97.403,508.369 100.77,511.737 104.924,511.737 L407.078,511.737 C411.231,511.737 414.599,508.37 414.599,504.216 L414.599,140.107 C414.599,135.954 411.23,132.586 407.076,132.586 Z" id="Path" fill="#F9F1EF" fill-rule="nonzero"></path>
    <path d="M407.076,132.586 L377.996,132.586 L377.996,511.736 L407.076,511.736 C411.229,511.736 414.597,508.369 414.597,504.215 L414.597,140.107 C414.597,135.954 411.23,132.586 407.076,132.586 Z" id="Path" fill="#DDDBDB" fill-rule="nonzero"></path>
    <path d="M181.122,98.885 C180.696,95.08 177.478,92.202 173.649,92.202 L77.275,92.202 C73.122,92.202 69.754,95.569 69.754,99.723 L69.754,140.108 C69.754,144.261 73.121,147.629 77.275,147.629 L189.725,147.629 C192.577,147.629 195.183,146.017 196.455,143.464 C197.727,140.912 197.447,137.86 195.73,135.581 C187.666,124.881 182.614,112.192 181.122,98.885 Z" id="Path" fill="#565656" fill-rule="nonzero"></path>
    <path d="M434.726,92.202 L337.848,92.202 C334.019,92.202 330.801,95.08 330.375,98.885 C328.883,112.192 323.832,124.882 315.768,135.581 C314.051,137.858 313.771,140.911 315.043,143.464 C316.316,146.016 318.922,147.629 321.773,147.629 L434.727,147.629 C438.88,147.629 442.248,144.262 442.248,140.108 L442.248,99.722 C442.248,95.569 438.88,92.202 434.726,92.202 Z" id="Path" fill="#565656" fill-rule="nonzero"></path>
    <path d="M199.986,281.952 L157.946,281.952 C153.793,281.952 150.425,285.319 150.425,289.473 L150.425,331.513 C150.425,335.666 153.792,339.034 157.946,339.034 L199.986,339.034 C204.139,339.034 207.507,335.667 207.507,331.513 L207.507,289.473 C207.507,285.319 204.139,281.952 199.986,281.952 Z" id="Path" fill="#00C1EC" fill-rule="nonzero"></path>
    <path d="M277.02,281.952 L234.98,281.952 C230.827,281.952 227.459,285.319 227.459,289.473 L227.459,331.513 C227.459,335.666 230.826,339.034 234.98,339.034 L277.02,339.034 C281.173,339.034 284.541,335.667 284.541,331.513 L284.541,289.473 C284.541,285.319 281.173,281.952 277.02,281.952 Z" id="Path" fill="#00C1EC" fill-rule="nonzero"></path>
    <path d="M354.055,281.952 L312.015,281.952 C307.862,281.952 304.494,285.319 304.494,289.473 L304.494,331.513 C304.494,335.666 307.861,339.034 312.015,339.034 L354.055,339.034 C358.208,339.034 361.576,335.667 361.576,331.513 L361.576,289.473 C361.576,285.319 358.209,281.952 354.055,281.952 Z" id="Path" fill="#00C1EC" fill-rule="nonzero"></path>
    <path d="M199.986,209.179 L157.946,209.179 C153.793,209.179 150.425,212.546 150.425,216.7 L150.425,258.74 C150.425,262.893 153.792,266.261 157.946,266.261 L199.986,266.261 C204.139,266.261 207.507,262.894 207.507,258.74 L207.507,216.7 C207.507,212.546 204.139,209.179 199.986,209.179 Z" id="Path" fill="#00C1EC" fill-rule="nonzero"></path>
    <path d="M277.02,209.179 L234.98,209.179 C230.827,209.179 227.459,212.546 227.459,216.7 L227.459,258.74 C227.459,262.893 230.826,266.261 234.98,266.261 L277.02,266.261 C281.173,266.261 284.541,262.894 284.541,258.74 L284.541,216.7 C284.541,212.546 281.173,209.179 277.02,209.179 Z" id="Path" fill="#00C1EC" fill-rule="nonzero"></path>
    <path d="M354.055,209.179 L312.015,209.179 C307.862,209.179 304.494,212.546 304.494,216.7 L304.494,258.74 C304.494,262.893 307.861,266.261 312.015,266.261 L354.055,266.261 C358.208,266.261 361.576,262.894 361.576,258.74 L361.576,216.7 C361.576,212.546 358.209,209.179 354.055,209.179 Z" id="Path" fill="#00C1EC" fill-rule="nonzero"></path>
    <path d="M343.252,404.191 L256,404.191 C251.847,404.191 248.479,407.558 248.479,411.712 L248.479,504.216 C248.479,508.369 251.846,511.737 256,511.737 L343.252,511.737 C347.405,511.737 350.773,508.37 350.773,504.216 L350.773,411.712 C350.773,407.558 347.406,404.191 343.252,404.191 Z" id="Path" fill="#00C1EC" fill-rule="nonzero"></path>
    <path d="M343.252,404.191 L316.178,404.191 L316.178,511.737 L343.252,511.737 C347.405,511.737 350.773,508.37 350.773,504.216 L350.773,411.712 C350.772,407.558 347.406,404.191 343.252,404.191 Z" id="Path" fill="#00AADE" fill-rule="nonzero"></path>
    <path d="M256,404.191 L168.748,404.191 C164.595,404.191 161.227,407.558 161.227,411.712 L161.227,504.216 C161.227,508.369 164.594,511.737 168.748,511.737 L256,511.737 C260.153,511.737 263.521,508.37 263.521,504.216 L263.521,411.712 C263.521,407.558 260.154,404.191 256,404.191 Z" id="Path" fill="#00C1EC" fill-rule="nonzero"></path>
    <rect id="Rectangle" fill="#00AADE" fill-rule="nonzero" x="228.927" y="404.188" width="34.595" height="107.545"></rect>
    <path d="M255.748,0.264 C206.037,0.264 165.593,40.708 165.593,90.419 C165.593,140.13 206.037,180.574 255.748,180.574 C305.46,180.574 345.903,140.131 345.903,90.419 C345.903,40.707 305.46,0.264 255.748,0.264 Z" id="Path" fill="#EF3A47" fill-rule="nonzero"></path>
    <path d="M255.748,0.264 C249.292,0.264 242.995,0.952 236.92,2.247 C277.625,10.93 308.247,47.162 308.247,90.419 C308.247,133.676 277.623,169.908 236.92,178.591 C242.995,179.887 249.292,180.574 255.748,180.574 C305.46,180.574 345.903,140.131 345.903,90.419 C345.903,40.707 305.46,0.264 255.748,0.264 Z" id="Path" fill="#CE3043" fill-rule="nonzero"></path>
    <path d="M288.303,76.2 L269.968,76.2 L269.968,57.864 C269.968,55.047 267.685,52.763 264.867,52.763 L246.63,52.763 C243.813,52.763 241.529,55.046 241.529,57.864 L241.529,76.199 L223.194,76.199 C220.377,76.199 218.093,78.482 218.093,81.3 L218.093,99.537 C218.093,102.354 220.376,104.638 223.194,104.638 L241.529,104.638 L241.529,122.973 C241.529,125.79 243.812,128.074 246.63,128.074 L264.867,128.074 C267.684,128.074 269.968,125.791 269.968,122.973 L269.968,104.638 L288.303,104.638 C291.12,104.638 293.403,102.355 293.403,99.537 L293.403,81.3 C293.403,78.483 291.12,76.2 288.303,76.2 Z" id="Path" fill="#F9F1EF" fill-rule="nonzero"></path>
    <path d="M360.855,371.481 L151.146,371.481 C146.993,371.481 143.625,374.848 143.625,379.002 L143.625,411.659 C143.625,415.812 146.992,419.18 151.146,419.18 L360.855,419.18 C365.008,419.18 368.376,415.813 368.376,411.659 L368.376,379.002 C368.376,374.848 365.008,371.481 360.855,371.481 Z" id="Path" fill="#565656" fill-rule="nonzero"></path>
</svg>