<?xml version="1.0" encoding="UTF-8"?>
<svg width="361px" height="314px" viewBox="0 0 361 314" version="1.1" xmlns="http://www.w3.org/2000/svg" xmlns:xlink="http://www.w3.org/1999/xlink">
    <path d="M223,56.3050326 L220.552901,159.122626 C220.552901,203.816806 201.990152,247.009526 165.77469,273.253621 L122.135929,304.552534 C115.791673,309.149821 107.208327,309.148822 100.864071,304.551535 L59.6054056,275.750062 C54.6252046,272.140762 43.5577579,266.207844 43.5577579,266.207844 C15.9416434,240.051659 0,203.518113 0,164.974627 L0,55.1482185 C0,53.4969114 1.34105412,52.1612807 2.99412084,52.1522899 C55.6902476,51.8655838 87.4955312,43.9676806 110.601464,30.4165729 C111.549502,29.8611424 112.711549,29.8611424 113.659587,30.4165729 C134.218417,42.4742117 161.657524,50.0604344 204.584257,51.7866647 C209.257445,53.2052105 214.195645,53.2761378 220.005879,53.308105 C221.658946,53.3180948 223,54.6527265 223,56.3050326 L223,56.3050326 Z" id="Path" fill="#FFA726" fill-rule="nonzero"></path>
    <path d="M224,55.3651376 L224,165.473242 C224,210.281651 202.524405,252.375917 166.254289,278.686086 L122.331489,310.544725 C115.970946,315.151758 107.376702,315.151758 101.026176,310.544725 L57.1033758,278.686086 C52.1151079,275.070566 47.4073049,271.144572 43,266.968196 C48.8597122,267.669266 54.8396237,268.029817 60.899668,268.029817 C140.090924,268.029817 204.287327,206.616055 204.287327,130.870413 L204.287327,52 C209.616159,52.2103211 215.175374,52.3405199 220.995019,52.3705657 C222.657775,52.3705657 224,53.7126147 224,55.3651376 Z" id="Path" fill="#FB8C00" fill-rule="nonzero"></path>
    <path d="M172.998639,141.350158 L132.651203,141.350158 C131.545451,141.350158 130.649842,140.454549 130.649842,139.348797 L130.649842,99.0013609 C130.649842,97.895609 129.754233,97 128.648481,97 L96.351519,97 C95.2457671,97 94.3501581,97.895609 94.3501581,99.0013609 L94.3501581,139.348797 C94.3501581,140.454549 93.4545491,141.350158 92.3487972,141.350158 L52.0013609,141.350158 C50.895609,141.350158 50,142.245767 50,143.351519 L50,175.648481 C50,176.754233 50.895609,177.649842 52.0013609,177.649842 L92.3487972,177.649842 C93.4545491,177.649842 94.3501581,178.545451 94.3501581,179.651203 L94.3501581,219.998639 C94.3501581,221.104391 95.2457671,222 96.351519,222 L128.648481,222 C129.754233,222 130.649842,221.104391 130.649842,219.998639 L130.649842,179.651203 C130.649842,178.545451 131.545451,177.649842 132.651203,177.649842 L172.998639,177.649842 C174.104391,177.649842 175,176.754233 175,175.648481 L175,143.351519 C175,142.245767 174.104391,141.350158 172.998639,141.350158 Z" id="Path" fill="#F6F0F7" fill-rule="nonzero"></path>
    <path d="M358.993418,120.068665 L339.937916,120.068665 C338.82928,120.068665 337.931335,119.17072 337.931335,118.062084 L337.931335,99.0065816 C337.931335,97.8979453 337.03339,97 335.924753,97 L311.075247,97 C309.96661,97 309.068665,97.8979453 309.068665,99.0065816 L309.068665,118.062084 C309.068665,119.17072 308.17072,120.068665 307.062084,120.068665 L288.006582,120.068665 C286.897945,120.068665 286,120.96661 286,122.075247 L286,146.924753 C286,148.03339 286.897945,148.931335 288.006582,148.931335 L307.062084,148.931335 C308.17072,148.931335 309.068665,149.82928 309.068665,150.937916 L309.068665,169.993418 C309.068665,171.102055 309.96661,172 311.075247,172 L335.924753,172 C337.03339,172 337.931335,171.102055 337.931335,169.993418 L337.931335,150.937916 C337.931335,149.82928 338.82928,148.931335 339.937916,148.931335 L358.993418,148.931335 C360.102055,148.931335 361,148.03339 361,146.924753 L361,122.075247 C361,120.967614 360.102055,120.068665 358.993418,120.068665 L358.993418,120.068665 Z" id="Path" fill="#FFA726" fill-rule="nonzero"></path>
    <path d="M291.5,20 L279,20 L279,7.5 C279,3.358 275.643,0 271.5,0 C267.357,0 264,3.358 264,7.5 L264,20 L251.5,20 C247.357,20 244,23.358 244,27.5 C244,31.642 247.357,35 251.5,35 L264,35 L264,47.5 C264,51.642 267.357,55 271.5,55 C275.643,55 279,51.642 279,47.5 L279,35 L291.5,35 C295.643,35 299,31.642 299,27.5 C299,23.358 295.643,20 291.5,20 Z" id="Path" fill="#FB8C00" fill-rule="nonzero"></path>
</svg>