<svg xmlns="http://www.w3.org/2000/svg" width="512" height="230" viewBox="0 0 512 230"><g fill="none" fill-rule="nonzero"><path fill="#D8ECFE" d="M487.024 198.252H114.472V31.748h372.553c13.794 0 24.976 11.182 24.976 24.976v116.553c0 13.793-11.183 24.975-24.977 24.975"/><path fill="#C4E2FF" d="M114.472 198.252h114.377C245.912 174.873 256 146.095 256 115s-10.088-59.873-27.151-83.252H114.472z"/><path fill="#FFD15B" d="m175.125 197.518 16.518-19.146 12.389-21.023 10.887-38.292-3.379-47.982-11.638-27.852-10.418-13.046-7.062-7.301C163.416 8.834 139.915.528 114.471.528 51.251.528 0 51.779 0 115s51.251 114.472 114.472 114.472c23.147 0 44.684-6.877 62.694-18.689z"/><path fill="#FFC344" d="M182.422 22.877c14.042 19.006 22.348 42.507 22.348 67.951 0 63.221-51.251 114.472-114.472 114.472-25.444 0-48.945-8.306-67.951-22.348 20.848 28.218 54.347 46.521 92.124 46.521 63.221 0 114.472-51.251 114.472-114.472 0-37.778-18.303-71.276-46.521-92.124"/><circle cx="114.472" cy="50.48" r="16.65" fill="#26A6FE"/><path fill="#26A6FE" d="M97.821 179.52V115c0-9.196 7.455-16.65 16.65-16.65 9.196 0 16.65 7.455 16.65 16.65v64.52c0 9.196-7.455 16.65-16.65 16.65-9.195.001-16.65-7.454-16.65-16.65"/><path fill="#60B7FF" d="M331.649 71.077a7.5 7.5 0 0 0-7.5 7.5v72.846a7.5 7.5 0 0 0 7.5 7.5 7.5 7.5 0 0 0 7.5-7.5V78.577a7.5 7.5 0 0 0-7.5-7.5M468.114 108.537l-3.208-1.181c-8.63-3.174-12.962-4.768-16.993-6.963-2.699-1.47-2.848-4.143-2.697-5.605.295-2.857 2.333-6.429 7.167-7.885 11.152-3.36 21.321 4.763 21.529 4.931a7.5 7.5 0 0 0 9.619-11.509c-.66-.556-16.397-13.532-35.475-7.784-9.794 2.951-16.765 11.078-17.761 20.706-.883 8.546 3.118 16.332 10.443 20.321 4.995 2.72 9.672 4.44 18.989 7.867l3.195 1.176c7.552 2.786 11.407 7.053 10.576 11.706-.843 4.723-6.425 9.606-14.306 9.606-7.686 0-15.098-3.115-19.828-8.334a7.5 7.5 0 0 0-11.115 10.073c7.526 8.305 19.093 13.262 30.942 13.262 14.338 0 26.836-9.444 29.072-21.97 1.702-9.517-2.699-21.98-20.149-28.417M300.06 71.077h-40.23a7.5 7.5 0 0 0-7.5 7.5 7.5 7.5 0 0 0 7.5 7.5h12.533v65.346a7.5 7.5 0 0 0 7.5 7.5 7.5 7.5 0 0 0 7.5-7.5V86.077h12.696a7.5 7.5 0 0 0 7.5-7.5c0-4.143-3.357-7.5-7.499-7.5M384.586 71.077h-20.284a7.5 7.5 0 0 0-7.5 7.5v72.846a7.5 7.5 0 0 0 7.5 7.5 7.5 7.5 0 0 0 7.5-7.5V127.24c4.476-.024 9.854-.048 12.784-.048 15.692 0 28.459-12.586 28.459-28.057s-12.766-28.058-28.459-28.058m0 41.114c-2.93 0-8.299.024-12.784.048V86.077h12.784c7.296 0 13.459 5.979 13.459 13.058.001 7.077-6.163 13.056-13.459 13.056"/></g></svg>