<svg xmlns="http://www.w3.org/2000/svg" width="512" height="339" viewBox="0 0 512 339"><g fill="none" fill-rule="nonzero"><path fill="#F5F8F9" d="M511.63 33.365v272.9c0 17.89-14.5 32.39-32.39 32.39H32.39c-17.89 0-32.39-14.5-32.39-32.39v-272.9C0 15.475 14.5.975 32.39.975h446.85c17.89 0 32.39 14.5 32.39 32.39"/><path fill="#E8EDF2" d="M479.241.973h-3.281a32.23 32.23 0 0 1 4.787 16.947v272.907c0 17.888-14.501 32.389-32.389 32.389H4.783c5.7 9.263 15.928 15.442 27.602 15.442h446.856c17.888 0 32.389-14.501 32.389-32.389V33.362c0-17.888-14.501-32.389-32.389-32.389"/><path fill="#CE2B60" d="M154.446 139.982a8.953 8.953 0 0 0-8.392-5.778h-.009a8.95 8.95 0 0 0-8.376 5.759l-20.944 54.996a7.72 7.72 0 0 0 4.468 9.963 7.72 7.72 0 0 0 9.963-4.468l3.322-8.723h22.993l3.283 8.701a7.72 7.72 0 0 0 7.224 4.997c.906 0 1.828-.161 2.724-.5a7.72 7.72 0 0 0 4.498-9.949zm-14.089 36.306 5.668-14.884 5.617 14.884zM287.136 134.204h-.076a7.72 7.72 0 0 0-7.646 7.795l.306 31.551-24.794-35.909a7.722 7.722 0 0 0-14.075 4.387v55.677a7.72 7.72 0 0 0 7.721 7.721 7.72 7.72 0 0 0 7.721-7.721v-30.907l23.569 34.133c2.239 3.236 5.989 4.608 9.545 3.496 3.627-1.132 5.971-4.509 5.971-8.676l-.522-53.902a7.72 7.72 0 0 0-7.72-7.645M383.578 134.204h-.076a7.72 7.72 0 0 0-7.646 7.795l.306 31.55-24.794-35.908a7.722 7.722 0 0 0-14.075 4.387v55.677a7.72 7.72 0 0 0 7.721 7.721 7.72 7.72 0 0 0 7.721-7.721v-30.907l23.569 34.133c2.24 3.236 5.988 4.608 9.545 3.496 3.626-1.132 5.97-4.509 5.97-8.676l-.521-53.902a7.72 7.72 0 0 0-7.72-7.645M316.335 134.204a7.72 7.72 0 0 0-7.721 7.721v55.781a7.72 7.72 0 0 0 7.721 7.721 7.72 7.72 0 0 0 7.721-7.721v-55.781a7.72 7.72 0 0 0-7.721-7.721M462.847 162.094h-16.684a7.72 7.72 0 0 0-7.721 7.721 7.72 7.72 0 0 0 7.721 7.721h8.045c-2.395 9.037-9.089 12.449-15.434 12.449-11.121 0-20.168-9.048-20.168-20.17s9.047-20.17 20.168-20.17a20.05 20.05 0 0 1 11.269 3.439 7.72 7.72 0 0 0 10.72-2.074 7.72 7.72 0 0 0-2.074-10.72 35.43 35.43 0 0 0-19.914-6.087c-19.635 0-35.609 15.975-35.609 35.611s15.974 35.611 35.609 35.611c18.72 0 31.794-14.643 31.794-35.611a7.72 7.72 0 0 0-7.722-7.72M109.978 134.455a7.72 7.72 0 0 0-9.079 6.065l-5.885 29.573-9.377-30.442a7.72 7.72 0 0 0-9.652-5.106 7.71 7.71 0 0 0-5.257 5.696l-9.24 29.858-5.869-29.673c-.826-4.183-4.884-6.91-9.072-6.076a7.72 7.72 0 0 0-6.076 9.072l10.866 54.944q.11.556.3 1.09a8.99 8.99 0 0 0 8.461 5.971h.063a8.99 8.99 0 0 0 8.505-6.291l9.59-30.987 9.547 30.993q.049.158.105.315a8.99 8.99 0 0 0 8.461 5.971h.06a8.99 8.99 0 0 0 8.441-6.084q.165-.483.263-.983l10.91-54.825a7.72 7.72 0 0 0-6.065-9.081M229.503 156.421c0-12.251-10.335-22.217-23.037-22.217h-14.821l-.009.001-.009-.001a7.72 7.72 0 0 0-7.721 7.721v55.781a7.72 7.72 0 0 0 7.721 7.721 7.72 7.72 0 0 0 7.721-7.721V183.9l16.639 18.907a7.7 7.7 0 0 0 5.799 2.62 7.72 7.72 0 0 0 5.793-12.822l-13.416-15.245c8.928-3.062 15.34-11.29 15.34-20.939m-23.036-6.776c4.117 0 7.595 3.103 7.595 6.776s-3.478 6.776-7.595 6.776c-1.664 0-4.384.01-7.04.023-.013-2.579-.023-5.199-.023-6.799 0-1.367-.006-4.07-.014-6.776z"/><path fill="#554E56" d="M511.63 33.365v41.95H0v-41.95C0 15.475 14.5.975 32.39.975H467.7l1.241 1.013c10.12 0 28.629 3.864 34.569 11.134.05.06.92-.138.96-.078v.01a32.3 32.3 0 0 1 7.16 20.311"/><path fill="#433F43" d="M511.63 33.365v41.95H0v-30.88h438.8c23.17 0 65.19-31.98 65.54-31.55.05.06.09.11.13.17a32.3 32.3 0 0 1 7.16 20.31"/><path fill="#FED402" d="m111.176.977-74.33 74.339H0V63.31L62.327.977z"/><path fill="#FAC600" d="M67.726 44.432H18.877L0 63.311v12.004h36.846z"/><path fill="#FED402" d="m246.202.977-74.33 74.338h-48.849L197.353.977zM381.527.977l-74.33 74.338h-48.85L332.677.977z"/><path fill="#FAC600" d="M258.347 75.315h48.849l30.881-30.883h-48.85zM123.023 75.315h48.849l30.881-30.883h-48.85z"/><path fill="#FED402" d="M504.47 13.045v.01l-62.25 62.26h-48.85l30.88-30.88L467.7.975h11.55c10.12 0 19.15 4.64 25.09 11.91.05.06.09.1.13.16"/><path fill="#FAC600" d="m504.47 13.055-62.25 62.26h-48.85l30.88-30.88h14.55c23.17 0 41.95-18.79 41.95-41.96 0-.49-.01-.97-.04-1.46 8.93.4 16.92 4.41 22.54 10.6.38.42.74.84 1.09 1.27.05.06.09.11.13.17"/><path fill="#554E56" d="M511.63 264.315v41.95c0 17.89-14.5 32.39-32.39 32.39H43.22l-1.867-.777c-9.377 0-26.077-4.706-33.226-10.974-.635-.557-.508.24-.993-.363a33 33 0 0 1-2.345-3.326 32.17 32.17 0 0 1-4.79-16.95v-41.95z"/><path fill="#433F43" d="M511.63 264.315v41.95c0 17.89-14.5 32.39-32.39 32.39H43.22l-1.062-1.152-9.785.221c-9.863 0-18.055-4.108-23.999-11.069-.209-.245-1.042.142-1.245-.11-.84-1.06-1.63-2.17-2.34-3.33h443.2c17.89 0 32.39-14.5 32.39-32.39v-26.51z"/><path fill="#FED402" d="M68.701 264.315h48.849l-74.33 74.338H32.022c-10.289 0-16.273-7.961-22.212-15.438z"/><path fill="#FAC600" d="m58.66 323.215-15.44 15.44H32.39c-10.21 0-19.32-4.72-25.26-12.11l2.68-3.33z"/><path fill="#FED402" d="M203.727 264.315h48.839l-74.331 74.338h-48.838z"/><path fill="#FAC600" d="M193.671 323.215h-48.839l-15.435 15.438h48.838z"/><path fill="#FED402" d="m387.592 264.315-74.33 74.338h-48.85l74.331-74.338z"/><path fill="#FAC600" d="M328.698 323.215h-48.85l-15.436 15.438h48.849z"/><path fill="#FED402" d="M511.63 264.315v10.989l-63.343 63.349h-48.849l74.33-74.338z"/><path fill="#FAC600" d="M480.755 290.827c0 17.888-14.501 32.389-32.389 32.389h-33.492l-15.436 15.438h48.849l63.342-63.349v-10.989h-30.875z"/></g></svg>