<svg xmlns="http://www.w3.org/2000/svg" width="100%" height="100%" viewBox="0 0 1350 1080"><rect width="100%" height="100%" fill="#DDDDDD"/><path fill="#999999" d="M322.025 578.19h18.46v13.14h-56.8v-13.14h20.8v-59.85q0-3.55.21-7.31l-14.76 12.35q-1.28 1-2.52 1.25-1.25.24-2.35.03t-1.95-.74q-.85-.54-1.28-1.18l-5.54-7.59 31.32-26.63h14.41v89.67Zm44.23-59.28-9.23-1.63q1.07-7.39 4.12-12.96 3.05-5.57 7.63-9.3 4.58-3.73 10.51-5.61 5.93-1.88 12.74-1.88 7.1 0 12.82 2.02 5.72 2.02 9.76 5.61 4.05 3.59 6.22 8.41 2.16 4.83 2.16 10.44 0 4.9-1.1 8.63-1.1 3.72-3.16 6.49t-5.11 4.69q-3.05 1.92-6.89 3.19 9.23 2.92 13.78 8.88 4.54 5.96 4.54 14.98 0 7.67-2.84 13.56-2.84 5.89-7.67 9.91-4.83 4.01-11.18 6.07-6.36 2.06-13.46 2.06-7.73 0-13.49-1.78-5.75-1.77-10.01-5.25t-7.24-8.52q-2.98-5.04-5.11-11.65l7.74-3.19q3.05-1.28 5.71-.68 2.67.61 3.87 2.88 1.28 2.48 2.81 4.9 1.52 2.41 3.65 4.29t5.01 3.06q2.88 1.17 6.85 1.17 4.47 0 7.81-1.46 3.34-1.45 5.58-3.8 2.23-2.34 3.33-5.21 1.1-2.88 1.1-5.79 0-3.69-.78-6.71t-3.26-5.15q-2.49-2.13-7.14-3.34-4.65-1.2-12.46-1.2v-12.5q6.46-.07 10.72-1.21 4.26-1.13 6.78-3.15 2.52-2.03 3.52-4.87.99-2.84.99-6.25 0-7.24-4.05-11-4.04-3.76-10.79-3.76-3.12 0-5.75.88-2.63.89-4.72 2.49-2.1 1.6-3.52 3.73t-2.13 4.68q-1.2 3.27-3.16 4.33-1.95 1.07-5.5.5Zm97.91-14.34-3.62 21.37q3.41-.71 6.53-1.03 3.13-.32 6.04-.32 8.09 0 14.27 2.41 6.18 2.42 10.36 6.68 4.19 4.26 6.32 9.97 2.13 5.72 2.13 12.32 0 8.17-2.87 14.91-2.88 6.75-7.99 11.54-5.11 4.79-12.11 7.42-6.99 2.63-15.23 2.63-4.82 0-9.15-1-4.34-.99-8.13-2.66-3.8-1.67-7.03-3.83-3.23-2.17-5.79-4.58l5.4-7.46q1.7-2.41 4.47-2.41 1.77 0 3.62 1.13 1.85 1.14 4.23 2.49 2.37 1.35 5.6 2.48 3.23 1.14 7.78 1.14 4.83 0 8.52-1.56 3.69-1.57 6.14-4.37 2.45-2.8 3.69-6.67 1.25-3.87 1.25-8.42 0-8.38-4.87-13.1-4.86-4.72-14.38-4.72-7.31 0-14.98 2.7l-10.93-3.12 8.52-49.85h50.69v7.46q0 3.76-2.34 6.1-2.34 2.35-7.95 2.35h-28.19ZM592.885 540q0 13.42-2.87 23.32-2.88 9.9-7.95 16.37-5.08 6.46-12 9.62-6.92 3.16-14.95 3.16-8.02 0-14.87-3.16t-11.89-9.62q-5.05-6.47-7.89-16.37-2.84-9.9-2.84-23.32 0-13.49 2.84-23.36t7.89-16.33q5.04-6.46 11.89-9.62 6.85-3.16 14.87-3.16 8.03 0 14.95 3.16t12 9.62q5.07 6.46 7.95 16.33 2.87 9.87 2.87 23.36Zm-18.1 0q0-11.15-1.63-18.46-1.64-7.32-4.37-11.65-2.73-4.33-6.28-6.07-3.55-1.74-7.39-1.74-3.76 0-7.28 1.74-3.51 1.74-6.21 6.07t-4.29 11.65q-1.6 7.31-1.6 18.46 0 11.14 1.6 18.46 1.59 7.31 4.29 11.64 2.7 4.33 6.21 6.07 3.52 1.74 7.28 1.74 3.84 0 7.39-1.74t6.28-6.07q2.73-4.33 4.37-11.64 1.63-7.32 1.63-18.46Zm130.85 27.83-9.3 9.16-24.07-24.07-24.28 24.21-9.3-9.16 24.28-24.35-23.14-23.15 9.23-9.23 23.14 23.15 23.01-23.01 9.37 9.23-23.08 23.08 24.14 24.14Zm97.2 10.36h18.46v13.14h-56.8v-13.14h20.8v-59.85q0-3.55.22-7.31l-14.77 12.35q-1.28 1-2.52 1.25-1.24.24-2.34.03-1.1-.21-1.96-.74-.85-.54-1.27-1.18l-5.54-7.59 31.31-26.63h14.41v89.67ZM908.985 540q0 13.42-2.88 23.32-2.87 9.9-7.95 16.37-5.08 6.46-12 9.62-6.92 3.16-14.95 3.16-8.02 0-14.87-3.16t-11.89-9.62q-5.04-6.47-7.88-16.37-2.84-9.9-2.84-23.32 0-13.49 2.84-23.36t7.88-16.33q5.04-6.46 11.89-9.62 6.85-3.16 14.87-3.16 8.03 0 14.95 3.16t12 9.62q5.08 6.46 7.95 16.33 2.88 9.87 2.88 23.36Zm-18.11 0q0-11.15-1.63-18.46-1.63-7.32-4.37-11.65-2.73-4.33-6.28-6.07-3.55-1.74-7.39-1.74-3.76 0-7.27 1.74-3.52 1.74-6.22 6.07-2.69 4.33-4.29 11.65-1.6 7.31-1.6 18.46 0 11.14 1.6 18.46 1.6 7.31 4.29 11.64 2.7 4.33 6.22 6.07 3.51 1.74 7.27 1.74 3.84 0 7.39-1.74t6.28-6.07q2.74-4.33 4.37-11.64 1.63-7.32 1.63-18.46Zm62.84 38.76q4.33 0 7.59-1.24 3.27-1.24 5.51-3.44 2.23-2.2 3.37-5.26 1.13-3.05 1.13-6.6 0-8.45-4.68-12.78-4.69-4.33-12.92-4.33-8.24 0-12.93 4.33-4.68 4.33-4.68 12.78 0 3.55 1.13 6.6 1.14 3.06 3.38 5.26 2.23 2.2 5.5 3.44 3.27 1.24 7.6 1.24Zm0-78.03q-3.91 0-6.75 1.21t-4.72 3.23q-1.88 2.02-2.77 4.65-.89 2.63-.89 5.54 0 3.05.75 5.93.74 2.87 2.52 5.11 1.77 2.24 4.69 3.59 2.91 1.34 7.17 1.34t7.17-1.34q2.91-1.35 4.68-3.59 1.78-2.24 2.52-5.11.75-2.88.75-5.93 0-2.91-.92-5.54-.93-2.63-2.77-4.65-1.85-2.02-4.69-3.23-2.84-1.21-6.74-1.21Zm17.32 37.07q9.37 3.05 13.85 9.33 4.47 6.29 4.47 15.37 0 6.82-2.59 12.36-2.59 5.54-7.28 9.44-4.69 3.91-11.25 6.04-6.57 2.13-14.52 2.13-7.96 0-14.52-2.13-6.57-2.13-11.26-6.04-4.68-3.9-7.27-9.44-2.6-5.54-2.6-12.36 0-9.08 4.48-15.37 4.47-6.28 13.84-9.33-7.45-3.13-11.18-8.88-3.73-5.75-3.73-13.84 0-5.83 2.38-10.87 2.38-5.04 6.64-8.77 4.26-3.72 10.19-5.82 5.93-2.09 13.03-2.09t13.02 2.09q5.93 2.1 10.19 5.82 4.26 3.73 6.64 8.77 2.38 5.04 2.38 10.87 0 8.09-3.73 13.84-3.72 5.75-11.18 8.88Zm102.67 2.2q0 13.42-2.88 23.32-2.87 9.9-7.95 16.37-5.08 6.46-12 9.62-6.92 3.16-14.95 3.16-8.02 0-14.87-3.16t-11.89-9.62q-5.04-6.47-7.88-16.37-2.84-9.9-2.84-23.32 0-13.49 2.84-23.36t7.88-16.33q5.04-6.46 11.89-9.62 6.85-3.16 14.87-3.16 8.03 0 14.95 3.16t12 9.62q5.08 6.46 7.95 16.33 2.88 9.87 2.88 23.36Zm-18.11 0q0-11.15-1.63-18.46-1.63-7.32-4.37-11.65-2.73-4.33-6.28-6.07-3.55-1.74-7.39-1.74-3.76 0-7.27 1.74-3.52 1.74-6.22 6.07-2.69 4.33-4.29 11.65-1.6 7.31-1.6 18.46 0 11.14 1.6 18.46 1.6 7.31 4.29 11.64 2.7 4.33 6.22 6.07 3.51 1.74 7.27 1.74 3.84 0 7.39-1.74t6.28-6.07q2.74-4.33 4.37-11.64 1.63-7.32 1.63-18.46Z"/></svg>