<svg xmlns="http://www.w3.org/2000/svg" width="512" height="512" viewBox="0 0 24 24"><path d="M.5 7a.5.5 0 0 1-.5-.5v-2C0 3.122 1.121 2 2.5 2h2a.5.5 0 0 1 0 1h-2C1.673 3 1 3.673 1 4.5v2a.5.5 0 0 1-.5.5M23.5 7a.5.5 0 0 1-.5-.5v-2c0-.827-.673-1.5-1.5-1.5h-2a.5.5 0 0 1 0-1h2C22.879 2 24 3.122 24 4.5v2a.5.5 0 0 1-.5.5M4.5 22h-2A2.503 2.503 0 0 1 0 19.5v-2a.5.5 0 0 1 1 0v2c0 .827.673 1.5 1.5 1.5h2a.5.5 0 0 1 0 1M21.5 22h-2a.5.5 0 0 1 0-1h2c.827 0 1.5-.673 1.5-1.5v-2a.5.5 0 0 1 1 0v2c0 1.378-1.121 2.5-2.5 2.5M12 18c-3.853 0-7.136-2.418-7.985-5.881a.5.5 0 0 1 0-.238C4.864 8.418 8.147 6 12 6s7.136 2.418 7.985 5.881a.5.5 0 0 1 0 .238C19.136 15.582 15.853 18 12 18m-6.984-6c.786 2.95 3.639 5 6.984 5s6.198-2.05 6.984-5C18.198 9.05 15.346 7 12 7s-6.198 2.05-6.984 5"/><path d="M12 15c-1.654 0-3-1.346-3-3s1.346-3 3-3 3 1.346 3 3-1.346 3-3 3m0-5c-1.103 0-2 .897-2 2s.897 2 2 2 2-.897 2-2-.897-2-2-2"/></svg>