<svg xmlns="http://www.w3.org/2000/svg" width="511pt" height="511pt" viewBox="0 0 511.999 511"><path d="M343.531 473.055h29.41v29.41h-29.41zM464.648 444.04h29.41v29.41h-29.41zM404.09 350.16h29.41v29.41h-29.41zM482.586 256.332H512v29.414h-29.414zM216.313 121.262h29.41v29.41h-29.41zM69.234 90.52h29.41v29.414h-29.41zM164.285 28.488h29.41v29.41h-29.41zM290.352.5h29.41v29.41h-29.41zM297.91 150.992l-30.637 62.078-68.507 9.953 49.57 48.32-11.703 68.231 61.277-32.215 61.274 32.215-11.704-68.23 49.57-48.32-68.507-9.954zm21.41 133.711-21.41-11.254-21.406 11.254 4.086-23.84-17.32-16.879 23.937-3.48 10.703-21.688 10.703 21.688 23.938 3.48-17.32 16.88zM361.434 178.25l57.359-30.156 57.363 30.156-10.957-63.871 46.406-45.234-64.128-9.317-28.684-58.113-28.68 58.113-64.129 9.317 46.407 45.234zm48.613-90.988 8.746-17.727 8.75 17.727 19.559 2.843-14.153 13.797 3.34 19.48-17.496-9.198-17.492 9.199 3.34-19.48-14.153-13.798zm0 0"/><path d="M324.477 392.277c-55.82 8.75-111.137-14.164-144.364-59.8-33.222-45.637-38.047-105.317-12.578-155.754l13.192-26.121-28.915 4.53c-27.921 4.376-54.835 15.54-77.828 32.282-38.812 28.258-64.296 69.938-71.757 117.363-7.465 47.426 3.988 94.922 32.246 133.735 35.14 48.261 89.972 73.886 145.543 73.883 36.683-.004 73.699-11.172 105.558-34.372 22.992-16.738 41.883-38.921 54.621-64.152l13.192-26.125zm-56.57 61.485c-66.743 48.59-160.575 33.828-209.169-32.914C35.2 388.516 25.66 348.953 31.875 309.445c6.219-39.507 27.445-74.226 59.777-97.77 11.727-8.534 24.317-15.218 37.637-19.984a180.4 180.4 0 0 0-7.422 65.657c2.395 33.46 14.149 65.55 33.985 92.793 19.832 27.246 46.761 48.28 77.87 60.84a180.4 180.4 0 0 0 64.762 13.101c-8.629 11.211-18.851 21.14-30.578 29.68m0 0"/></svg>