<svg xmlns="http://www.w3.org/2000/svg" width="512" height="512" viewBox="0 0 24 24"><path d="M20.27 19H6.753a2.25 2.25 0 0 1-2.223-2.596l1.479-9.5A2.24 2.24 0 0 1 8.233 5H21.75a2.25 2.25 0 0 1 2.223 2.596l-1.479 9.5A2.24 2.24 0 0 1 20.27 19M8.233 6.5a.746.746 0 0 0-.741.635l-1.479 9.5a.74.74 0 0 0 .171.604.74.74 0 0 0 .569.261H20.27a.746.746 0 0 0 .741-.635l1.479-9.5a.74.74 0 0 0-.171-.604.74.74 0 0 0-.569-.261z"/><path d="M14.324 13.476c-.482 0-.964-.128-1.396-.382L6.146 9.096a.75.75 0 1 1 .761-1.292l6.783 3.998c.367.216.812.23 1.193.041l7.848-3.924a.75.75 0 0 1 .67 1.341l-7.848 3.924a2.7 2.7 0 0 1-1.229.292M4.25 8.5H.75a.75.75 0 0 1 0-1.5h3.5a.75.75 0 0 1 0 1.5M3.25 12.5H.75a.75.75 0 0 1 0-1.5h2.5a.75.75 0 0 1 0 1.5M2.25 16.5H.75a.75.75 0 0 1 0-1.5h1.5a.75.75 0 0 1 0 1.5"/></svg>