<svg height="512" viewBox="0 0 512 512" width="512" xmlns="http://www.w3.org/2000/svg"><path d="m512 343.332c-8.577-1.815-17.257-3.147-26-4-7.665-.747-15.379-1.131-23.115-1.131-9.835 0-19.811.615-29.649 1.829-36.159 4.46-69.817 16.619-100.04 36.139l-5.004 3.361c-10.941-7.586-21.668-16.272-32.238-26.078 38.625-28.866 84.124-47.168 132.386-53.121 19.253-2.375 38.55-2.743 57.661-1.139 8.713.731 17.387 1.875 26 3.431v-30.435c-28.775-4.675-58.107-5.237-87.334-1.632-12.3 1.517-24.437 3.767-36.359 6.709.011-.699.027-1.396.027-2.098 0-72.969-59.365-132.333-132.333-132.333-62.372 0-114.796 43.378-128.71 101.547-13.094-3.437-26.427-6.006-39.957-7.675-29.225-3.604-58.558-3.043-87.334 1.632v30.435c13.355-2.413 26.856-3.843 40.423-4.272 5.791-.183 11.593-.179 17.401 0 8.608.266 17.227.918 25.837 1.98 65.523 8.083 125.018 38.927 172.052 89.198 32.026 34.229 65.058 58.446 100.983 74.033 17.082 7.412 34.644 12.753 52.968 16.123 15.708 2.889 31.975 4.333 49.002 4.333v-30c-36.77 0-70.232-7.61-101.651-23.423 24.414-14.34 51.243-23.406 79.893-26.94 8.624-1.063 17.364-1.603 25.977-1.603 7.744 0 15.46.438 23.115 1.294 8.764.98 17.448 2.514 26 4.603v-30.767zm-256-170.499c56.427 0 102.333 45.907 102.333 102.333 0 3.839-.22 7.627-.634 11.358-29.809 10.736-57.838 26.03-83.116 45.476-24.166-25.17-51.604-46.005-81.631-61.942-12.015-6.377-24.354-11.906-36.962-16.596 9.982-46.035 51.029-80.629 100.01-80.629z"/><path d="m237.477 396.092c-39.165-50.188-95.53-82.12-158.713-89.913-9.838-1.213-19.814-1.829-29.649-1.829-16.563 0-33.022 1.725-49.115 5.132v30.765c16.018-3.914 32.504-5.897 49.115-5.897 8.612 0 17.352.54 25.976 1.603 55.23 6.813 104.5 34.725 138.735 78.595z"/><path d="m241 61.833h30v42.667h-30z"/><path d="m145 87.556h30v42.667h-30z" transform="matrix(.866 -.5 .5 .866 -33.009 94.587)"/><path d="m74.723 157.833h30v42.667h-30z" transform="matrix(.5 -.866 .866 .5 -110.301 167.285)"/><path d="m330.667 93.89h42.667v30h-42.667z" transform="matrix(.5 -.866 .866 .5 81.701 359.288)"/><path d="m400.944 164.167h42.667v30h-42.667z" transform="matrix(.866 -.5 .5 .866 -33.009 235.145)"/></svg>